HIERARCHY
ROOT Hips
{
	OFFSET 0.000000 0.000000 0.000000
	CHANNELS 6 Xposition Yposition Zposition Xrotation Yrotation Zrotation
	JOINT LeftUpLeg_virtual
	{
		OFFSET 0.000000 0.000000 0.000000
		CHANNELS 3 Xrotation Yrotation Zrotation
		JOINT LeftUpLeg
		{
			OFFSET 13.026900 -6.336304 -1.092800
			CHANNELS 3 Xrotation Yrotation Zrotation
			JOINT LeftLeg
			{
				OFFSET 0.524474 -46.096886 9.782700
				CHANNELS 3 Xrotation Yrotation Zrotation
				JOINT LeftFoot
				{
					OFFSET -0.524474 -53.427422 -12.948200
					CHANNELS 3 Xrotation Yrotation Zrotation
					JOINT LeftToeBase
					{
						OFFSET 0.192200 -14.009700 16.364100
						CHANNELS 3 Xrotation Yrotation Zrotation
						JOINT LeftToe_End
						{
							OFFSET -1.784700 -0.561700 9.474800
							CHANNELS 3 Xrotation Yrotation Zrotation
							End Site
							{
								OFFSET 0 0 0
							}
						}
					}
				}
			}
		}
	}
	JOINT RightUpLeg_virtual
	{
		OFFSET 0.000000 0.000000 0.000000
		CHANNELS 3 Xrotation Yrotation Zrotation
		JOINT RightUpLeg
		{
			OFFSET -12.883000 -6.336304 -1.092800
			CHANNELS 3 Xrotation Yrotation Zrotation
			JOINT RightLeg
			{
				OFFSET -0.524587 -46.096825 9.782800
				CHANNELS 3 Xrotation Yrotation Zrotation
				JOINT RightFoot
				{
					OFFSET 0.524587 -53.427383 -12.948300
					CHANNELS 3 Xrotation Yrotation Zrotation
					JOINT RightToeBase
					{
						OFFSET -0.192200 -14.009700 16.364100
						CHANNELS 3 Xrotation Yrotation Zrotation
						JOINT RightToe_End
						{
							OFFSET 1.784700 -0.561700 9.474800
							CHANNELS 3 Xrotation Yrotation Zrotation
							End Site
							{
								OFFSET 0 0 0
							}
						}
					}
				}
			}
		}
	}
	JOINT Spine_virtual
	{
		OFFSET 0.000000 0.000000 0.000000
		CHANNELS 3 Xrotation Yrotation Zrotation
		JOINT Spine
		{
			OFFSET 0.072000 7.257294 -0.789700
			CHANNELS 3 Xrotation Yrotation Zrotation
			JOINT Spine1
			{
				OFFSET 0.000000 12.508769 -0.658067
				CHANNELS 3 Xrotation Yrotation Zrotation
				JOINT Spine1_split
				{
					OFFSET 0.000000 12.508769 -0.658067
					CHANNELS 3 Xrotation Yrotation Zrotation
					JOINT Spine2
					{
						OFFSET 0.000000 12.508769 -0.658067
						CHANNELS 3 Xrotation Yrotation Zrotation
						JOINT Neck_virtual
						{
							OFFSET 0.000000 0.000000 0.000000
							CHANNELS 3 Xrotation Yrotation Zrotation
							JOINT Neck
							{
								OFFSET 0.000000 14.033295 7.520400
								CHANNELS 3 Xrotation Yrotation Zrotation
								JOINT Head
								{
									OFFSET 0.000000 8.198502 5.703100
									CHANNELS 3 Xrotation Yrotation Zrotation
									JOINT HeadTop_End
									{
										OFFSET 0.000000 17.760803 13.332701
										CHANNELS 3 Xrotation Yrotation Zrotation
										End Site
										{
											OFFSET 0 0 0
										}
									}
								}
							}
						}
						JOINT LeftShoulder_virtual
						{
							OFFSET 0.000000 0.000000 0.000000
							CHANNELS 3 Xrotation Yrotation Zrotation
							JOINT LeftShoulder
							{
								OFFSET 6.292450 5.785301 -0.669000
								CHANNELS 3 Xrotation Yrotation Zrotation
								JOINT LeftShoulder_split
								{
									OFFSET 6.292450 5.785301 -0.669000
									CHANNELS 3 Xrotation Yrotation Zrotation
									JOINT LeftArm
									{
										OFFSET 13.907140 -6.093903 1.965100
										CHANNELS 3 Xrotation Yrotation Zrotation
										JOINT LeftForeArm
										{
											OFFSET 34.140198 0.000000 0.000000
											CHANNELS 3 Xrotation Yrotation Zrotation
											JOINT LeftHand
											{
												OFFSET 40.960209 0.000000 0.000000
												CHANNELS 3 Xrotation Yrotation Zrotation
												End Site
												{
													OFFSET 0 0 0
												}
											}
										}
									}
								}
							}
						}
						JOINT RightShoulder_virtual
						{
							OFFSET 0.000000 0.000000 0.000000
							CHANNELS 3 Xrotation Yrotation Zrotation
							JOINT RightShoulder
							{
								OFFSET -6.292450 5.785301 -0.669000
								CHANNELS 3 Xrotation Yrotation Zrotation
								JOINT RightShoulder_split
								{
									OFFSET -6.292450 5.785301 -0.669000
									CHANNELS 3 Xrotation Yrotation Zrotation
									JOINT RightArm
									{
										OFFSET -13.907140 -6.093903 1.965100
										CHANNELS 3 Xrotation Yrotation Zrotation
										JOINT RightForeArm
										{
											OFFSET -34.140198 0.000000 0.000000
											CHANNELS 3 Xrotation Yrotation Zrotation
											JOINT RightHand
											{
												OFFSET -40.960209 0.000000 0.000000
												CHANNELS 3 Xrotation Yrotation Zrotation
												End Site
												{
													OFFSET 0 0 0
												}
											}
										}
									}
								}
							}
						}
					}
				}
			}
		}
	}
}
MOTION
Frames: 8
Frame Time: 0.03333333
-19.279455 95.214668 -2.184734 0.000000 0.000000 0.000000 -7.316589 -46.534738 2.372981 -23.474047 9.250980 22.539728 45.894456 -5.832863 8.808071 -20.226845 -10.425615 -25.382976 -4.771151 0.131101 -0.375685 0.000000 0.000000 0.000000 -9.031143 -42.158933 3.115835 -27.624106 -3.121926 -35.403766 51.252821 -4.896526 -9.122893 -7.849465 -6.911693 26.164807 -4.238187 0.724517 0.750048 0.000000 0.000000 0.000000 -6.477264 -43.804213 3.273429 10.403053 7.659072 -1.768020 2.331771 0.554399 -2.318870 0.483901 -1.500571 0.861853 0.000000 0.000000 0.000000 2.717065 0.402128 -1.982984 0.420815 13.440799 1.862867 11.118024 17.903140 0.094133 0.000000 0.000000 0.000000 3.223066 0.302015 -2.290503 1.995628 -2.352382 -12.933061 -2.141998 -3.257600 0.030201 -68.487700 -0.565368 -39.980645 178.597999 -75.632187 -179.760224 0.000000 0.000000 0.000000 3.759263 0.468264 -2.102918 3.314510 10.964801 -12.804987 -1.481572 0.624695 1.676887 -65.981205 20.041916 88.149281 -22.638539 85.655531 20.191349 0.000000 0.000000 0.000000 
-21.114735 95.584854 -2.670467 0.000000 0.000000 0.000000 -7.896303 -48.265060 2.177384 -22.695991 7.682660 22.693923 46.348171 -5.018066 9.319533 -17.627226 -9.400044 -24.511020 -5.266238 0.255793 -1.300452 0.000000 0.000000 0.000000 -9.732022 -43.129537 2.944079 -27.287425 -3.797503 -35.372460 51.938456 -5.505902 -8.902047 -10.297163 -6.516897 24.937637 -3.014884 0.770428 1.136583 0.000000 0.000000 0.000000 -7.164161 -44.852271 3.190089 10.445585 7.333816 -1.923923 2.344021 0.065522 -2.413204 0.502559 -0.943979 1.047888 0.000000 0.000000 0.000000 2.651075 -0.151357 -2.051450 0.934447 13.594256 1.774515 11.384891 18.407887 -0.628686 0.000000 0.000000 0.000000 3.183854 -0.222961 -2.421059 2.093465 -0.984982 -12.680712 -1.958012 -3.294765 0.387756 -68.090415 -1.033238 -41.448723 178.719058 -74.676794 -179.471840 0.000000 0.000000 0.000000 3.644964 -0.039797 -2.171182 3.168940 10.109343 -13.546059 -0.956427 0.724591 1.284586 -66.970763 18.635078 88.441900 -26.133709 85.956394 23.514997 0.000000 0.000000 0.000000 
-22.792509 96.732246 -2.864563 0.000000 0.000000 0.000000 -8.336840 -49.002021 1.970340 -22.704194 6.258278 22.786213 47.166520 -4.828423 9.704810 -13.892810 -9.472391 -24.366381 -7.219199 0.319305 -1.903810 0.000000 0.000000 0.000000 -10.320579 -43.882091 2.731682 -26.721329 -4.995007 -34.998166 51.832779 -6.301709 -8.565833 -12.221270 -5.983378 23.642954 -2.178481 0.854071 1.309390 0.000000 0.000000 0.000000 -7.278630 -45.622850 3.203913 10.269156 7.003595 -1.906760 2.251241 -0.434496 -2.432918 0.487512 -0.462994 0.986026 0.000000 0.000000 0.000000 2.545109 -0.662002 -2.064283 1.354830 13.685406 1.866597 11.441599 18.982262 -1.499592 0.000000 0.000000 0.000000 3.096535 -0.713192 -2.474558 2.136878 -0.266944 -12.424287 -1.609232 -2.848745 0.434830 -66.566129 -1.519253 -43.100857 179.010311 -73.898890 -179.165014 0.000000 0.000000 0.000000 3.468712 -0.509693 -2.166473 3.017192 9.143184 -13.832904 -0.490834 0.738243 0.855896 -67.899068 17.022167 88.879278 -41.050106 87.300637 38.376391 0.000000 0.000000 0.000000 
-24.229628 98.288353 -2.850746 0.000000 0.000000 0.000000 -8.543720 -48.826161 1.856066 -23.244187 5.820539 22.496387 47.764756 -4.861124 9.624260 -10.639871 -10.395069 -24.245560 -10.079963 0.269083 -1.931400 0.000000 0.000000 0.000000 -10.679189 -44.485531 2.521677 -25.888833 -6.383929 -34.313986 50.646181 -6.952246 -8.367742 -13.024285 -5.223505 23.099022 -2.507339 0.922781 1.246509 0.000000 0.000000 0.000000 -6.935122 -46.120559 3.348788 9.947020 6.787925 -1.741516 2.087278 -0.799834 -2.395288 0.452440 -0.131428 0.836007 0.000000 0.000000 0.000000 2.450432 -0.977310 -2.050696 1.575596 13.676852 2.084288 11.167401 19.496041 -2.378169 0.000000 0.000000 0.000000 2.985285 -1.023592 -2.452941 2.109189 -0.223351 -12.293377 -1.199444 -2.128910 0.113317 -63.797983 -2.011850 -44.692670 179.400383 -73.398196 -178.906219 0.000000 0.000000 0.000000 3.306800 -0.809691 -2.117175 2.871027 8.174371 -13.518419 -0.173554 0.512505 0.501928 -67.865750 15.866685 89.240281 -115.295205 88.223477 112.721194 0.000000 0.000000 0.000000 
-25.417307 99.877518 -2.704994 0.000000 0.000000 0.000000 -8.526067 -48.121046 1.866609 -24.145187 6.473699 21.733421 48.125977 -4.982243 9.079038 -9.202483 -11.642875 -23.846207 -12.254316 0.070280 -1.404307 0.000000 0.000000 0.000000 -10.604048 -44.844765 2.450390 -24.712383 -7.844430 -33.166695 48.551734 -7.537399 -8.413763 -13.108208 -4.642375 22.888145 -3.244128 0.956234 1.041124 0.000000 0.000000 0.000000 -6.354982 -46.334682 3.554942 9.608159 6.734227 -1.507484 1.877129 -0.919969 -2.296718 0.342706 0.009277 0.676512 0.000000 0.000000 0.000000 2.386792 -1.014849 -2.016167 1.491401 13.530655 2.334671 10.638704 19.864859 -3.201613 0.000000 0.000000 0.000000 2.870843 -1.068371 -2.346193 2.032409 -0.739287 -12.323788 -0.920623 -1.325517 -0.216108 -59.901223 -2.281194 -45.915356 -179.975485 -73.192936 -178.484891 0.000000 0.000000 0.000000 3.206991 -0.853868 -2.008733 2.767470 7.380141 -12.626794 -0.028772 0.218842 0.310125 -66.491646 15.637052 89.361926 -163.354697 85.545087 161.040657 0.000000 0.000000 0.000000 
-26.438784 101.046303 -2.415138 0.000000 0.000000 0.000000 -8.274219 -47.496077 1.959323 -25.467474 7.973346 20.681615 48.598575 -5.134452 8.105229 -9.874418 -12.778639 -23.237016 -12.084462 -0.206769 -0.603495 0.000000 0.000000 0.000000 -10.132282 -45.042666 2.528953 -23.421239 -9.165520 -31.694670 46.240452 -8.149150 -8.580309 -13.298870 -4.485176 22.422442 -3.297175 0.963696 0.830445 0.000000 0.000000 0.000000 -5.737861 -46.445163 3.751271 9.341263 6.879872 -1.275837 1.665107 -0.759203 -2.120045 0.309113 -0.117882 0.549164 0.000000 0.000000 0.000000 2.327161 -0.758605 -1.920668 1.146795 13.279422 2.503614 9.938627 20.050063 -3.870516 0.000000 0.000000 0.000000 2.771831 -0.834653 -2.145532 1.932045 -1.509132 -12.376556 -0.754143 -0.649728 -0.398245 -55.639445 -2.121455 -46.680200 -179.367953 -73.331213 -178.102169 0.000000 0.000000 0.000000 3.204127 -0.607534 -1.842508 2.756454 6.979080 -11.305777 -0.149033 -0.155598 0.379158 -63.819573 16.674478 89.186390 -173.534234 82.176315 171.587603 0.000000 0.000000 0.000000 
-27.393745 101.560127 -2.061531 0.000000 0.000000 0.000000 -7.780992 -47.555544 2.092237 -27.296069 9.729528 19.756286 49.349787 -5.294725 6.933483 -11.735002 -13.728528 -22.538046 -9.877498 -0.455377 0.292998 0.000000 0.000000 0.000000 -9.477224 -45.124106 2.623200 -22.457138 -10.121773 -30.192230 44.956551 -8.847994 -8.692981 -13.910422 -4.769505 21.544997 -2.741418 0.943727 0.715441 0.000000 0.000000 0.000000 -5.214555 -46.502988 3.873343 9.212598 7.193237 -1.138445 1.504574 -0.357463 -1.860621 0.288074 -0.476959 0.708743 0.000000 0.000000 0.000000 2.327701 -0.284144 -1.742302 0.632238 13.005438 2.559245 9.199800 20.078079 -4.362474 0.000000 0.000000 0.000000 2.711994 -0.385729 -1.853582 1.835442 -2.148134 -12.406665 -0.950513 -0.297093 -0.425958 -51.814467 -1.289831 -47.047296 -178.985763 -73.512383 -177.921879 0.000000 0.000000 0.000000 3.237388 -0.154743 -1.605225 2.797707 7.025575 -9.811341 -0.448031 -0.426452 0.723331 -60.392369 18.742777 88.672507 -177.284062 79.107975 175.735986 0.000000 0.000000 0.000000 
-28.456285 101.481094 -1.731956 0.000000 0.000000 0.000000 -7.149464 -48.381556 2.184974 -28.954313 10.977793 18.924595 50.213314 -5.472838 5.961400 -13.731937 -14.350395 -21.717222 -7.628066 -0.647702 1.295931 0.000000 0.000000 0.000000 -8.809260 -45.226637 2.659616 -22.104183 -10.521942 -28.932879 45.283577 -9.432174 -8.722583 -14.559923 -5.298449 20.711036 -2.390460 0.905029 0.684243 0.000000 0.000000 0.000000 -4.807827 -46.621492 3.806618 9.244911 7.570380 -1.149189 1.397695 0.175948 -1.560517 0.425795 -1.022284 0.931948 0.000000 0.000000 0.000000 2.385360 0.274854 -1.488234 0.133428 12.805787 2.496055 8.643336 20.148500 -4.716855 0.000000 0.000000 0.000000 2.662738 0.143194 -1.532059 1.760889 -2.422367 -12.237104 -1.386457 -0.148947 -0.262434 -49.247887 0.293857 -47.292954 -178.864418 -73.477768 -177.947110 0.000000 0.000000 0.000000 3.234169 0.381118 -1.316822 2.874115 7.453400 -8.431726 -0.830212 -0.472219 1.251392 -56.954902 21.239187 87.869578 -178.876794 76.659250 177.686593 0.000000 0.000000 0.000000 
